<svg id="Layer_1" data-name="Layer 1" xmlns="http://www.w3.org/2000/svg"
     width="120" height="120"
     viewBox="0 0 64 64">
    <defs>
        <style>.cls-2{fill:none;stroke:#ffffff;
            stroke-linecap:round;stroke-linejoin:round;stroke-width:1px;}.cls-3{stroke:#ffffff;}</style>
    </defs>
    <title>code, coding, programming, browser</title>
    <path class="cls-2" d="M21,22H46.8A3.2,3.2,0,0,0,50,18.8v-.49A4.33,4.33,0,0,0,45.69,14H18.31A4.33,4.33,0,0,0,14,18.31V45.69A4.33,4.33,0,0,0,18.31,50H45.69A4.33,4.33,0,0,0,50,45.69V27"/>
    <line class="cls-2" x1="33" y1="18" x2="30" y2="18"/>
    <line class="cls-2" x1="39" y1="18" x2="37" y2="18"/>
    <line class="cls-2" x1="46" y1="18" x2="43" y2="18"/>
    <line class="cls-2" x1="35.38" y1="28.19" x2="28.88" y2="44.94"/>
    <polyline class="cls-2" points="39.56 32.31 43.69 36.44 39.31 40.81"/>
    <polyline class="cls-2" points="24.88 32.37 20.75 36.49 25.13 40.87"/>
</svg>